<svg xmlns="http://www.w3.org/2000/svg" width="512" height="512" style="overflow: visible;" viewBox="0 0 512 512" data-bbox="16.78856862449902 -44.10105003029792 480.1860836515407 522.1833285418212"><rect data-uid="o_en1dn5ej5_4" data-fl-background="" x="0" y="0" width="512" height="512" fill="#fff3b8"></rect><path transform="matrix(2.5783724784851074, 0.12596732378005981, -0.12596732378005981, 2.5783724784851074, 133.9886016845703, 45.448917388916016)" data-type="circle" data-cx="50" data-cy="50" data-r="50" d="M50,50m-50,0a50,50 0 1, 0 100,0a50,50 0 1, 0 -100,0" fill="#94afe8" stroke="#ffffff" stroke-width="3" data-uid="o_en1dn5ej5_5"></path><g transform="matrix(1.361998438835144, -0.16170409321784973, 0.16170409321784973, 1.361998438835144, -123.6749267578125, -52.08041763305664)" stroke="#ffffff" stroke-width="4" data-uid="o_en1dn5ej5_6"><g transform="matrix(3.411846160888672, 1.8082438707351685, -1.8082438707351685, 3.411846160888672, 204.68472290039062, 30.137897491455078)" stroke="#ffffff" stroke-width="4" data-uid="o_en1dn5ej5_7"><path d="M25.9459229,43.4325562c-0.0083008,0.0473022-0.0178833,0.0935059-0.0281982,0.1401978   c-0.0087891,0.0396729-0.0137939,0.0802612-0.0239868,0.1194458L26.0859375,43.5l-0.1278687-0.1278687   C25.954895,43.3925171,25.9494629,43.4122925,25.9459229,43.4325562z" transform="matrix(1, 0, 0, 1, 0, 0)" fill="#d59d71" stroke="#ffffff" stroke-width="4" data-uid="o_en1dn5ej5_8"></path><path transform="matrix(0.7071068286895752, -0.7071068286895752, 0.7071068286895752, 0.7071068286895752, -21.38656234741211, 35.36827087402344)" fill="#d59d71" data-type="rect" data-x="29.8179131" data-y="41.3179131" data-width="4.3641748" data-height="4.3641748" d="M29.8179131,41.3179131H34.1820879,V45.6820879,H29.8179131,Z" stroke="#ffffff" stroke-width="4" data-uid="o_en1dn5ej5_9"></path><path transform="matrix(0.7071068286895752, -0.7071068286895752, 0.7071068286895752, 0.7071068286895752, -27.75052261352539, 38.004310607910156)" fill="#d59d71" data-type="rect" data-x="29.8179131" data-y="50.3179131" data-width="4.3641748" data-height="4.3641748" d="M29.8179131,50.3179131H34.1820879,V54.6820879,H29.8179131,Z" stroke="#ffffff" stroke-width="4" data-uid="o_en1dn5ej5_10"></path><path d="M38.2929688,40.2929688c0.0020142-0.0020142,0.0047607-0.0025635,0.0067749-0.0045166   c-0.0351563-0.0734863-0.0698853-0.1460571-0.098877-0.2225342C38.1921387,40.0429688,38.177124,40.0232544,38.1689453,40   h-3.7548828L36.5,42.0859375L38.2929688,40.2929688z" transform="matrix(1, 0, 0, 1, 0, 0)" fill="#d59d71" stroke="#ffffff" stroke-width="4" data-uid="o_en1dn5ej5_11"></path><path d="M20.5198975,25.4192505c0.2144165-0.2077637,0.4462891-0.3955688,0.6941528-0.5620728   c0.0455322-0.0306396,0.0949097-0.0540161,0.1414185-0.0831909c0.2008667-0.1256104,0.4091187-0.2374878,0.6265869-0.3339844   c0.0840454-0.0374146,0.1690063-0.0700073,0.255249-0.1028442c0.1983032-0.0753174,0.401123-0.1365356,0.6091919-0.1864014   c0.086853-0.020874,0.1714478-0.0450439,0.2597046-0.0612793C23.3986816,24.0357666,23.6959839,24,24,24   c2.4150391,0,4.4345703,1.7207031,4.8994141,4h9.2275391C38.5712891,26.2763672,40.1396484,25,42,25   c0.2643433,0,0.5245972,0.0267944,0.7785645,0.0766602c0.0740967,0.0145874,0.1429443,0.0446777,0.2158203,0.0633545   c0.1771851,0.0453491,0.3543701,0.090271,0.5230103,0.1593628c0.0066528,0.0027466,0.0140381,0.00354,0.0206909,0.0062866   C43.8447266,24.2382813,44,23.1308594,44,22c0-2.8974609-1.0400391-5.6728516-2.9355469-7.8535156   c-0.0343628-0.0059204-0.0717163-0.0166626-0.1065063-0.0233765c-0.0602417-0.0116577-0.1235352-0.0266113-0.1852417-0.0405884   c-0.1389771-0.0314331-0.2824097-0.0673828-0.4296265-0.1094971c-0.0629272-0.0180054-0.1275635-0.036438-0.1921997-0.0562134   c-0.166687-0.0509644-0.3407593-0.1072388-0.5197144-0.1682739c-0.0476685-0.0162354-0.0950317-0.0314331-0.1436768-0.0483398   c-0.2305908-0.0800171-0.4691162-0.1647339-0.7228394-0.2558594C36.9716797,12.8007813,34.7402344,12,32,12v1   c0,1.6542969-1.3457031,3-3,3c-0.2666016,0-0.5136719,0.1025391-0.6933594,0.2871094C28.1025391,16.4863281,28,16.7333984,28,17v2   c0,1.6542969-1.3457031,3-3,3c-0.8115234,0-1.5664063-0.3164063-2.1269531-0.8925781C22.3164063,20.5664063,22,19.8115234,22,19   v-3.1269531c-0.0908203-0.0234375-0.1806641-0.0507813-0.2695313-0.0800781C20.5957031,17.6601563,20,19.7890625,20,22   c0,1.1816406,0.1660156,2.3320313,0.4960938,3.4384766C20.503418,25.4313354,20.5125732,25.4263916,20.5198975,25.4192505z" transform="matrix(1, 0, 0, 1, 0, 0)" fill="#ef81eb" stroke="#ffffff" stroke-width="4" data-uid="o_en1dn5ej5_12"></path><path transform="matrix(1, 0, 0, 1, 0, 0)" fill="#d59d71" data-type="rect" data-x="29" data-y="36" data-width="9" data-height="2" d="M29,36H38,V38,H29,Z" stroke="#ffffff" stroke-width="4" data-uid="o_en1dn5ej5_13"></path><path d="M21.9101563,13.6777344C22.2392578,13.8886719,22.6162109,14,23,14c0.5527344,0,1,0.4472656,1,1v4   c0,0.2666016,0.1025391,0.5136719,0.2871094,0.6933594C24.4863281,19.8974609,24.7333984,20,25,20c0.5517578,0,1-0.4482422,1-1v-2   c0-0.8115234,0.3164063-1.5664063,0.8925781-2.1269531C27.4335938,14.3164063,28.1884766,14,29,14c0.5517578,0,1-0.4482422,1-1   v-1.9697266c0-0.5273438,0.4101563-0.9638672,0.9365234-0.9980469C31.2773438,10.0107422,31.6279297,10,32,10   c3.0888672,0,5.6044922,0.9023438,7.4404297,1.5615234c0.9111328,0.3271484,1.6982422,0.6103516,2.1826172,0.640625   c0.1455078,0.0087891,0.2041016-0.0087891,0.2128906-0.0117188C41.8310547,12.1865234,41.9941406,11.9667969,42,11.0517578   c-0.1269531-0.2089844-0.7089844-0.5615234-0.9619141-0.7148438c-0.2755737-0.166626-0.53125-0.3226318-0.7272949-0.5129395   l-2.6271973-0.8757324c-0.5234375-0.1738281-0.8066406-0.7402344-0.6318359-1.2646484   c0.1748047-0.5234375,0.7363281-0.8076172,1.2646484-0.6318359l1.2927246,0.4309082C38.5753784,4.2955933,35.5391846,2,32,2   c-3.7055054,0-6.8503418,2.5130005-7.7374878,6H27c0.5527344,0,1,0.4472656,1,1s-0.4472656,1-1,1h-3.9404297   c-0.9150391,0-1.6884766,0.5292969-1.9414063,1.2861328C20.7363281,12.4316406,21.3066406,13.2900391,21.9101563,13.6777344z" transform="matrix(1, 0, 0, 1, 0, 0)" fill="#ef81eb" stroke="#ffffff" stroke-width="4" data-uid="o_en1dn5ej5_14"></path><path d="M19,37c0,0.5517578,0.4482422,1,1,1v-2c-0.2666016,0-0.5136719,0.1025391-0.6933594,0.2871094   C19.1025391,36.4863281,19,36.7333984,19,37z" transform="matrix(1, 0, 0, 1, 0, 0)" fill="#d59d71" stroke="#ffffff" stroke-width="4" data-uid="o_en1dn5ej5_15"></path><path transform="matrix(1, 0, 0, 1, 0, 0)" fill="#d59d71" data-type="polygon" d="M27.5 44.9140625L25.6664429 46.7476196L26.9434204 50.5293579L27.5 51.0859375L30.5859375 48Z" stroke="#ffffff" stroke-width="4" data-uid="o_en1dn5ej5_16"></path><path d="M28.1573486,40.071106c-0.055542,0.0582275-0.1164551,0.1072388-0.1759644,0.1604614   c-0.1201782,0.1074219-0.2454834,0.2052612-0.380249,0.2911987c-0.0716553,0.0457764-0.1433105,0.0881958-0.2186279,0.1275635   c-0.1442871,0.0753784-0.2945557,0.1350098-0.4501953,0.1859131c-0.0720215,0.0235596-0.1405029,0.0521851-0.2145386,0.0702515   c-0.1118774,0.0273438-0.2272949,0.0396729-0.3431396,0.0540771L27.5,42.0859375L29.5859375,40h-1.3505859   C28.2116699,40.0266113,28.1818237,40.0454102,28.1573486,40.071106z" transform="matrix(1, 0, 0, 1, 0, 0)" fill="#d59d71" stroke="#ffffff" stroke-width="4" data-uid="o_en1dn5ej5_17"></path><path d="M44,36v2c0.2666016,0,0.5136719-0.1025391,0.6933594-0.2871094C44.8974609,37.5136719,45,37.2666016,45,37   C45,36.4482422,44.5517578,36,44,36z" transform="matrix(1, 0, 0, 1, 0, 0)" fill="#d59d71" stroke="#ffffff" stroke-width="4" data-uid="o_en1dn5ej5_18"></path><path d="M44,33.7221069c0.147583-0.0861816,0.2887573-0.1846924,0.4130859-0.309021C44.7919922,33.0341797,45,32.5322266,45,32   c0-0.5986328-0.2597656-1.1552734-0.7128906-1.5253906c-0.2910156-0.2382813-0.4238281-0.6181641-0.3447266-0.9853516   C43.9814453,29.3076172,44,29.1523438,44,29c0-0.5466309-0.2214355-1.0609741-0.6234741-1.449585   c-0.2767944-0.2664185-0.6210327-0.4428101-0.9945068-0.5143433C42.2574463,27.012207,42.1296387,27,42,27   c-1.1025391,0-2,0.8974609-2,2c0,0.5527344-0.4472656,1-1,1H28.8908081C28.71698,30.8499146,28.331543,31.647583,27.75,32.3066406   c-0.1982422,0.2246094-0.4736328,0.3388672-0.75,0.3388672c-0.2353516,0-0.4716797-0.0820313-0.6611328-0.25   C25.9238281,32.0302734,25.8847656,31.3984375,26.25,30.984375C26.7333984,30.4355469,27,29.7314453,27,29   c0-1.6542969-1.3457031-3-3-3c-1.2470703,0-2.3730469,0.7822266-2.8017578,1.9453125C21.0654297,28.28125,21,28.6386719,21,29   c0.0800781,0.4863281-0.2109375,0.9765625-0.6796875,1.1298828c-0.2636719,0.0869141-0.5253906,0.2490234-0.734375,0.4580078   C19.2080078,30.9658203,19,31.4677734,19,32s0.2080078,1.0341797,0.5869141,1.4130859S20.4677734,34,21,34   c0.5527344,0,1,0.4472656,1,1v4v4c0,0.2929688,0.1298828,0.5703125,0.3564453,0.7626953   c0.1328125,0.1113281,0.4189453,0.2910156,0.8173828,0.2207031c0.1035156-0.0146484,0.1865234-0.0449219,0.2802734-0.0976563   C23.78125,43.7050781,24,43.3007813,24,42.8798828V40v-2c0-0.5527344,0.4472656-1,1-1s1,0.4472656,1,1v1   c0.3579102,0,0.6815796-0.1881104,0.866272-0.5037231c0.0003662-0.0006714,0.0004883-0.0014648,0.0009155-0.0021362   C26.953125,38.3486328,27,38.1728516,27,38v-3c0-0.5527344,0.4472656-1,1-1h11c0.5527344,0,1,0.4472656,1,1v4   c0,0.2666016,0.1025391,0.5136719,0.2871094,0.6933594c0.2402344,0.2451172,0.5615234,0.3457031,0.8925781,0.2890625   c0.4433594-0.0693359,0.7900391-0.5097656,0.8115234-1.0244141C41.9921875,38.9257813,41.9951172,38.8925781,42,38.8613281   v-0.0009766V35v-2c0-0.5527344,0.4472656-1,1-1s1,0.4472656,1,1V33.7221069z M25.9199219,35.3798828   C25.8701172,35.5,25.7998047,35.609375,25.7099609,35.7099609C25.609375,35.7998047,25.5,35.8701172,25.3798828,35.9199219   S25.1298828,36,25,36s-0.2597656-0.0302734-0.3798828-0.0800781s-0.2304688-0.1201172-0.3300781-0.2099609   C24.2001953,35.609375,24.1298828,35.5,24.0800781,35.3798828C24.0195313,35.2597656,24,35.1298828,24,35   c0-0.2597656,0.109375-0.5205078,0.2900391-0.7099609c0.2294922-0.2304688,0.5800781-0.3398438,0.9101563-0.2705078   c0.0595703,0.0107422,0.1191406,0.0302734,0.1796875,0.0605469c0.0595703,0.0195313,0.1201172,0.0498047,0.1796875,0.0898438   c0.0498047,0.0400391,0.1005859,0.0800781,0.1503906,0.1201172C25.8896484,34.4794922,26,34.7402344,26,35   C26,35.1298828,25.9697266,35.2597656,25.9199219,35.3798828z" transform="matrix(1, 0, 0, 1, 0, 0)" fill="#ef81eb" stroke="#ffffff" stroke-width="4" data-uid="o_en1dn5ej5_19"></path><path transform="matrix(1, 0, 0, 1, 0, 0)" fill="#d59d71" data-type="polygon" d="M33.4140625 48L36.5 51.0859375L37.0570068 50.5289307L38.3336182 46.7476807L36.5 44.9140625Z" stroke="#ffffff" stroke-width="4" data-uid="o_en1dn5ej5_20"></path><path d="M39.7070313,41.7070313L37.9140625,43.5l1.1333618,1.1333618l0.9486694-2.8101196   c-0.0969849-0.0343018-0.184082-0.0903931-0.2769165-0.1344604C39.7139282,41.6942749,39.7124023,41.7016602,39.7070313,41.7070313   z" transform="matrix(1, 0, 0, 1, 0, 0)" fill="#d59d71" stroke="#ffffff" stroke-width="4" data-uid="o_en1dn5ej5_21"></path><path transform="matrix(1, 0, 0, 1, 0, 0)" fill="#d59d71" data-type="polygon" d="M34.5042725 58.09021L35.6156006 54.7984619L33.4140625 57Z" stroke="#ffffff" stroke-width="4" data-uid="o_en1dn5ej5_22"></path><path transform="matrix(1, 0, 0, 1, 0, 0)" fill="#d59d71" data-type="polygon" d="M28.3851929 54.7992554L29.4962158 58.0897217L30.5859375 57Z" stroke="#ffffff" stroke-width="4" data-uid="o_en1dn5ej5_23"></path><path d="M30.210144,60.2039185l0.1863403,0.5519409C30.6152344,61.5068359,31.2685547,62,32,62   s1.3847656-0.4931641,1.5888672-1.1982422l0.2015991-0.597229L32,58.4140625L30.210144,60.2039185z" transform="matrix(1, 0, 0, 1, 0, 0)" fill="#d59d71" stroke="#ffffff" stroke-width="4" data-uid="o_en1dn5ej5_24"></path></g><g transform="matrix(3.411846160888672, 1.8082438707351685, -1.8082438707351685, 3.411846160888672, 204.68472290039062, 30.137897491455078)" fill="#200932" stroke="#ffffff" stroke-width="4" data-uid="o_en1dn5ej5_25"><path d="M45.9200439,34.7142944C46.6116943,33.9717407,47,33.0171509,47,32c0-0.9980469-0.3642578-1.9404297-1.0146484-2.6621094   C45.9951172,29.2236328,46,29.1113281,46,29c0-0.8544312-0.2920532-1.6862183-0.8006592-2.3755493   C45.7208862,25.1429443,46,23.5935059,46,22c0-3.039917-0.9849243-5.9599609-2.7888794-8.3683472   C43.7536621,13.1025391,44,12.2911987,44,11c0-1.2070313-1.1591797-1.9091797-1.9267578-2.3740234   c-0.0654297-0.0400391-0.1279297-0.0761719-0.1845703-0.1113281C41.1699219,3.6357422,36.9804688,0,32,0   c-4.8349609,0-8.9169922,3.4199219-9.8125134,8.0800781c-1.3798695,0.2753906-2.521471,1.2402344-2.965807,2.5732422   c-0.4912109,1.4719849-0.1448364,2.9885254,0.8387451,4.0475464C18.7127686,16.8953247,18,19.3986206,18,22   c0,1.9710083,0.4144897,3.8648071,1.2000732,5.645874c-0.0824585,0.2861328-0.1487427,0.5794067-0.1776123,0.8814697   c-0.3076172,0.1738281-0.5947266,0.3916016-0.8496094,0.6455078C17.4160156,29.9287109,17,30.9335938,17,32   c0,1.0176392,0.3885498,1.9727783,1.0808716,2.7153931c-0.0620728,0.0535889-0.1308594,0.0985718-0.1882935,0.1576538   C17.3164063,35.4335938,17,36.1884766,17,37c0,1.6542969,1.3457031,3,3,3v3c0,0.8818359,0.3886719,1.7167969,1.0654297,2.2890625   c0.5478516,0.4638672,1.2382813,0.7119141,1.9306641,0.7119141c0.1000366,0,0.1993408-0.0146484,0.2988892-0.0251465   l2.5662231,7.5997925c0.0019531,0.005127,0.0030518,0.0101318,0.005127,0.0151978l2.2601318,6.6931152   c0.0057983,0.0158691,0.0092163,0.0314941,0.0158691,0.0470581l0.3469238,1.0274048C28.9404297,62.9140625,30.3837891,64,32,64   s3.0595703-1.0859375,3.4960938-2.5957031l0.3631592-1.0756836c0.0054932-0.0130005,0.0083008-0.026062,0.0132446-0.0392456   l2.2617798-6.699585c0.0016479-0.0039673,0.0025024-0.0079346,0.0040283-0.0119019l3.9858398-11.8060913   C42.8956909,41.4534912,43.4993286,40.8078613,43.7923584,40H44c0.8115234,0,1.5664063-0.3164063,2.1074219-0.8730469   C46.6835938,38.5664063,47,37.8115234,47,37C47,36.0795898,46.574585,35.2650146,45.9200439,34.7142944z M21.1181641,11.2861328   C21.3710938,10.5292969,22.1445313,10,23.0595703,10H27c0.5527344,0,1-0.4472656,1-1s-0.4472656-1-1-1h-2.7374878   C25.1496582,4.5130005,28.2944946,2,32,2c3.5391846,0,6.5753784,2.2955933,7.6091309,5.482666l-1.2927246-0.4309082   c-0.5283203-0.1757813-1.0898438,0.1083984-1.2646484,0.6318359c-0.1748047,0.5244141,0.1083984,1.0908203,0.6318359,1.2646484   l2.6271973,0.8757324c0.1960449,0.1903076,0.4517212,0.3463135,0.7272949,0.5129395   C41.2910156,10.4902344,41.8730469,10.8427734,42,11.0517578c-0.0058594,0.9150391-0.1689453,1.1347656-0.1640625,1.1386719   c-0.0087891,0.0029297-0.0673828,0.0205078-0.2128906,0.0117188c-0.484375-0.0302734-1.2714844-0.3134766-2.1826172-0.640625   C37.6044922,10.9023438,35.0888672,10,32,10c-0.3720703,0-0.7226563,0.0107422-1.0634766,0.0322266   C30.4101563,10.0664063,30,10.5029297,30,11.0302734V13c0,0.5517578-0.4482422,1-1,1   c-0.8115234,0-1.5664063,0.3164063-2.1074219,0.8730469C26.3164063,15.4335938,26,16.1884766,26,17v2c0,0.5517578-0.4482422,1-1,1   c-0.2666016,0-0.5136719-0.1025391-0.7128906-0.3066406C24.1025391,19.5136719,24,19.2666016,24,19v-4c0-0.5527344-0.4472656-1-1-1   c-0.3837891,0-0.7607422-0.1113281-1.0898438-0.3222656C21.3066406,13.2900391,20.7363281,12.4316406,21.1181641,11.2861328z    M21.7304688,15.7929688C21.8193359,15.8222656,21.9091797,15.8496094,22,15.8730469V19   c0,0.8115234,0.3164063,1.5664063,0.8730469,2.1074219C23.4335938,21.6835938,24.1884766,22,25,22c1.6542969,0,3-1.3457031,3-3v-2   c0-0.2666016,0.1025391-0.5136719,0.3066406-0.7128906C28.4863281,16.1025391,28.7333984,16,29,16c1.6542969,0,3-1.3457031,3-3v-1   c2.7402344,0,4.9716797,0.8007813,6.7646484,1.4443359c0.2537231,0.0911255,0.4922485,0.1758423,0.7228394,0.2558594   c0.048645,0.0169067,0.0960083,0.0321045,0.1436768,0.0483398c0.1789551,0.0610352,0.3530273,0.1173096,0.5197144,0.1682739   c0.0646362,0.0197754,0.1292725,0.038208,0.1921997,0.0562134c0.1472168,0.0421143,0.2906494,0.078064,0.4296265,0.1094971   c0.0617065,0.0139771,0.125,0.0289307,0.1852417,0.0405884c0.03479,0.0067139,0.0721436,0.0174561,0.1065063,0.0233765   C42.9599609,16.3271484,44,19.1025391,44,22c0,1.1308594-0.1552734,2.2382813-0.4619141,3.3056641   c-0.0066528-0.0027466-0.0140381-0.00354-0.0206909-0.0062866c-0.1686401-0.0690918-0.3458252-0.1140137-0.5230103-0.1593628   c-0.072876-0.0186768-0.1417236-0.0487671-0.2158203-0.0633545C42.5245972,25.0267944,42.2643433,25,42,25   c-1.8603516,0-3.4287109,1.2763672-3.8730469,3h-9.2275391C28.4345703,25.7207031,26.4150391,24,24,24   c-0.3040161,0-0.6013184,0.0357666-0.8937988,0.0894775c-0.0882568,0.0162354-0.1728516,0.0404053-0.2597046,0.0612793   c-0.2080688,0.0498657-0.4108887,0.111084-0.6091919,0.1864014c-0.0862427,0.0328369-0.1712036,0.0654297-0.255249,0.1028442   c-0.2174683,0.0964966-0.4257202,0.208374-0.6265869,0.3339844c-0.0465088,0.0291748-0.0958862,0.0525513-0.1414185,0.0831909   c-0.2478638,0.1665039-0.4797363,0.3543091-0.6941528,0.5620728c-0.0073242,0.0071411-0.0164795,0.012085-0.0238037,0.0192261   C20.1660156,24.3320313,20,23.1816406,20,22C20,19.7890625,20.5957031,17.6601563,21.7304688,15.7929688z M19,37   c0-0.2666016,0.1025391-0.5136719,0.3066406-0.7128906C19.4863281,36.1025391,19.7333984,36,20,36v2   C19.4482422,38,19,37.5517578,19,37z M22.3564453,43.7626953C22.1298828,43.5703125,22,43.2929688,22,43v-4v-4   c0-0.5527344-0.4472656-1-1-1c-0.5322266,0-1.0341797-0.2080078-1.4130859-0.5869141S19,32.5322266,19,32   s0.2080078-1.0341797,0.5859375-1.4121094c0.2089844-0.2089844,0.4707031-0.3710938,0.734375-0.4580078   C20.7890625,29.9765625,21.0800781,29.4863281,21,29c0-0.3613281,0.0654297-0.71875,0.1982422-1.0546875   C21.6269531,26.7822266,22.7529297,26,24,26c1.6542969,0,3,1.3457031,3,3c0,0.7314453-0.2666016,1.4355469-0.75,1.984375   c-0.3652344,0.4140625-0.3261719,1.0458984,0.0888672,1.4111328c0.1894531,0.1679688,0.4257813,0.25,0.6611328,0.25   c0.2763672,0,0.5517578-0.1142578,0.75-0.3388672C28.331543,31.647583,28.71698,30.8499146,28.8908081,30H39   c0.5527344,0,1-0.4472656,1-1c0-1.1025391,0.8974609-2,2-2c0.1296387,0,0.2574463,0.012207,0.382019,0.0360718   c0.3734741,0.0715332,0.7177124,0.2479248,0.9945068,0.5143433C43.7785645,27.9390259,44,28.4533691,44,29   c0,0.1523438-0.0185547,0.3076172-0.0576172,0.4892578c-0.0791016,0.3671875,0.0537109,0.7470703,0.3447266,0.9853516   C44.7402344,30.8447266,45,31.4013672,45,32c0,0.5322266-0.2080078,1.0341797-0.5869141,1.4130859   C44.2887573,33.5374146,44.147583,33.6359253,44,33.7221069V33c0-0.5527344-0.4472656-1-1-1s-1,0.4472656-1,1v2v3.8603516   v0.0009766c-0.0048828,0.03125-0.0078125,0.0644531-0.0087891,0.0966797   c-0.0214844,0.5146484-0.3681641,0.9550781-0.8115234,1.0244141c-0.3310547,0.0566406-0.6523438-0.0439453-0.8925781-0.2890625   C40.1025391,39.5136719,40,39.2666016,40,39v-4c0-0.5527344-0.4472656-1-1-1H28c-0.5527344,0-1,0.4472656-1,1v3   c0,0.1728516-0.046875,0.3486328-0.1328125,0.4941406c-0.0004272,0.0006714-0.0005493,0.0014648-0.0009155,0.0021362   C26.6815796,38.8118896,26.3579102,39,26,39v-1c0-0.5527344-0.4472656-1-1-1s-1,0.4472656-1,1v2v2.8798828   c0,0.4208984-0.21875,0.8251953-0.5458984,1.0058594c-0.09375,0.0527344-0.1767578,0.0830078-0.2802734,0.0976563   C22.7753906,44.0537109,22.4892578,43.8740234,22.3564453,43.7626953z M34.5042725,58.09021L33.4140625,57l2.2015381-2.2015381   L34.5042725,58.09021z M26.9434204,50.5293579l-1.2769775-3.7817383L27.5,44.9140625L30.5859375,48L27.5,51.0859375   L26.9434204,50.5293579z M25.9459229,43.4325562c0.00354-0.0202637,0.0089722-0.0400391,0.012146-0.0604248L26.0859375,43.5   l-0.1921997,0.1921997c0.0101929-0.0391846,0.0151978-0.0797729,0.0239868-0.1194458   C25.9280396,43.526062,25.9376221,43.4798584,25.9459229,43.4325562z M28.9140625,43.5L32,40.4140625L35.0859375,43.5   L32,46.5859375L28.9140625,43.5z M34.4140625,40h3.7548828c0.0081787,0.0232544,0.0231934,0.0429688,0.0319214,0.065918   c0.0289917,0.0764771,0.0637207,0.1490479,0.098877,0.2225342c-0.0020142,0.0019531-0.0047607,0.0025024-0.0067749,0.0045166   L36.5,42.0859375L34.4140625,40z M38,38h-9v-2h9V38z M26.932312,40.8362427   c0.1556396-0.0509033,0.3059082-0.1105347,0.4501953-0.1859131c0.0753174-0.0393677,0.1469727-0.0817871,0.2186279-0.1275635   c0.1347656-0.0859375,0.2600708-0.1837769,0.380249-0.2911987c0.0595093-0.0532227,0.1204224-0.1022339,0.1759644-0.1604614   C28.1818237,40.0454102,28.2116699,40.0266113,28.2353516,40h1.3505859L27.5,42.0859375l-1.1253662-1.1253662   c0.1158447-0.0144043,0.2312622-0.0267334,0.3431396-0.0540771C26.7918091,40.8884277,26.8602905,40.8598022,26.932312,40.8362427z    M28.3851929,54.7992554L30.5859375,57l-1.0897217,1.0897217L28.3851929,54.7992554z M28.9140625,52.5L32,49.4140625   L35.0859375,52.5L32,55.5859375L28.9140625,52.5z M37.0570068,50.5289307L36.5,51.0859375L33.4140625,48L36.5,44.9140625   l1.8336182,1.8336182L37.0570068,50.5289307z M37.9140625,43.5l1.7929688-1.7929688   c0.0053711-0.0053711,0.006897-0.0127563,0.012146-0.0182495c0.0928345,0.0440674,0.1799316,0.1001587,0.2769165,0.1344604   l-0.9486694,2.8101196L37.9140625,43.5z M32,62c-0.7314453,0-1.3847656-0.4931641-1.6035156-1.2441406l-0.1863403-0.5519409   L32,58.4140625l1.7904663,1.7904663l-0.2015991,0.597229C33.3847656,61.5068359,32.7314453,62,32,62z M44.6933594,37.7128906   C44.5136719,37.8974609,44.2666016,38,44,38v-2c0.5517578,0,1,0.4482422,1,1   C45,37.2666016,44.8974609,37.5136719,44.6933594,37.7128906z" transform="matrix(1, 0, 0, 1, 0, 0)" fill="#200932" stroke="#ffffff" stroke-width="4" data-uid="o_en1dn5ej5_26"></path><path d="M24.2900391,35.7099609c0.0996094,0.0898438,0.2099609,0.1601563,0.3300781,0.2099609S24.8701172,36,25,36   s0.2597656-0.0302734,0.3798828-0.0800781s0.2294922-0.1201172,0.3300781-0.2099609   C25.7998047,35.609375,25.8701172,35.5,25.9199219,35.3798828S26,35.1298828,26,35   c0-0.2597656-0.1103516-0.5205078-0.2900391-0.7099609C25.6601563,34.25,25.609375,34.2099609,25.5595703,34.1699219   C25.5,34.1298828,25.4394531,34.0996094,25.3798828,34.0800781c-0.0605469-0.0302734-0.1201172-0.0498047-0.1796875-0.0605469   c-0.3300781-0.0693359-0.6806641,0.0400391-0.9101563,0.2705078C24.109375,34.4794922,24,34.7402344,24,35   c0,0.1298828,0.0195313,0.2597656,0.0800781,0.3798828C24.1298828,35.5,24.2001953,35.609375,24.2900391,35.7099609z" transform="matrix(1, 0, 0, 1, 0, 0)" fill="#200932" stroke="#ffffff" stroke-width="4" data-uid="o_en1dn5ej5_27"></path></g></g><g transform="matrix(1.361998438835144, -0.16170409321784973, 0.16170409321784973, 1.361998438835144, -123.6749267578125, -52.08041763305664)" data-uid="o_en1dn5ej5_28"><g transform="matrix(3.411846160888672, 1.8082438707351685, -1.8082438707351685, 3.411846160888672, 204.68472290039062, 30.137897491455078)" data-uid="o_en1dn5ej5_29"><path d="M25.9459229,43.4325562c-0.0083008,0.0473022-0.0178833,0.0935059-0.0281982,0.1401978   c-0.0087891,0.0396729-0.0137939,0.0802612-0.0239868,0.1194458L26.0859375,43.5l-0.1278687-0.1278687   C25.954895,43.3925171,25.9494629,43.4122925,25.9459229,43.4325562z" transform="matrix(1, 0, 0, 1, 0, 0)" fill="#d59d71" data-uid="o_en1dn5ej5_30"></path><path transform="matrix(0.7071068286895752, -0.7071068286895752, 0.7071068286895752, 0.7071068286895752, -21.38656234741211, 35.36827087402344)" fill="#d59d71" data-type="rect" data-x="29.8179131" data-y="41.3179131" data-width="4.3641748" data-height="4.3641748" d="M29.8179131,41.3179131H34.1820879,V45.6820879,H29.8179131,Z" data-uid="o_en1dn5ej5_31"></path><path transform="matrix(0.7071068286895752, -0.7071068286895752, 0.7071068286895752, 0.7071068286895752, -27.75052261352539, 38.004310607910156)" fill="#d59d71" data-type="rect" data-x="29.8179131" data-y="50.3179131" data-width="4.3641748" data-height="4.3641748" d="M29.8179131,50.3179131H34.1820879,V54.6820879,H29.8179131,Z" data-uid="o_en1dn5ej5_32"></path><path d="M38.2929688,40.2929688c0.0020142-0.0020142,0.0047607-0.0025635,0.0067749-0.0045166   c-0.0351563-0.0734863-0.0698853-0.1460571-0.098877-0.2225342C38.1921387,40.0429688,38.177124,40.0232544,38.1689453,40   h-3.7548828L36.5,42.0859375L38.2929688,40.2929688z" transform="matrix(1, 0, 0, 1, 0, 0)" fill="#d59d71" data-uid="o_en1dn5ej5_33"></path><path d="M20.5198975,25.4192505c0.2144165-0.2077637,0.4462891-0.3955688,0.6941528-0.5620728   c0.0455322-0.0306396,0.0949097-0.0540161,0.1414185-0.0831909c0.2008667-0.1256104,0.4091187-0.2374878,0.6265869-0.3339844   c0.0840454-0.0374146,0.1690063-0.0700073,0.255249-0.1028442c0.1983032-0.0753174,0.401123-0.1365356,0.6091919-0.1864014   c0.086853-0.020874,0.1714478-0.0450439,0.2597046-0.0612793C23.3986816,24.0357666,23.6959839,24,24,24   c2.4150391,0,4.4345703,1.7207031,4.8994141,4h9.2275391C38.5712891,26.2763672,40.1396484,25,42,25   c0.2643433,0,0.5245972,0.0267944,0.7785645,0.0766602c0.0740967,0.0145874,0.1429443,0.0446777,0.2158203,0.0633545   c0.1771851,0.0453491,0.3543701,0.090271,0.5230103,0.1593628c0.0066528,0.0027466,0.0140381,0.00354,0.0206909,0.0062866   C43.8447266,24.2382813,44,23.1308594,44,22c0-2.8974609-1.0400391-5.6728516-2.9355469-7.8535156   c-0.0343628-0.0059204-0.0717163-0.0166626-0.1065063-0.0233765c-0.0602417-0.0116577-0.1235352-0.0266113-0.1852417-0.0405884   c-0.1389771-0.0314331-0.2824097-0.0673828-0.4296265-0.1094971c-0.0629272-0.0180054-0.1275635-0.036438-0.1921997-0.0562134   c-0.166687-0.0509644-0.3407593-0.1072388-0.5197144-0.1682739c-0.0476685-0.0162354-0.0950317-0.0314331-0.1436768-0.0483398   c-0.2305908-0.0800171-0.4691162-0.1647339-0.7228394-0.2558594C36.9716797,12.8007813,34.7402344,12,32,12v1   c0,1.6542969-1.3457031,3-3,3c-0.2666016,0-0.5136719,0.1025391-0.6933594,0.2871094C28.1025391,16.4863281,28,16.7333984,28,17v2   c0,1.6542969-1.3457031,3-3,3c-0.8115234,0-1.5664063-0.3164063-2.1269531-0.8925781C22.3164063,20.5664063,22,19.8115234,22,19   v-3.1269531c-0.0908203-0.0234375-0.1806641-0.0507813-0.2695313-0.0800781C20.5957031,17.6601563,20,19.7890625,20,22   c0,1.1816406,0.1660156,2.3320313,0.4960938,3.4384766C20.503418,25.4313354,20.5125732,25.4263916,20.5198975,25.4192505z" transform="matrix(1, 0, 0, 1, 0, 0)" fill="#ef81eb" data-uid="o_en1dn5ej5_34"></path><path transform="matrix(1, 0, 0, 1, 0, 0)" fill="#d59d71" data-type="rect" data-x="29" data-y="36" data-width="9" data-height="2" d="M29,36H38,V38,H29,Z" data-uid="o_en1dn5ej5_35"></path><path d="M21.9101563,13.6777344C22.2392578,13.8886719,22.6162109,14,23,14c0.5527344,0,1,0.4472656,1,1v4   c0,0.2666016,0.1025391,0.5136719,0.2871094,0.6933594C24.4863281,19.8974609,24.7333984,20,25,20c0.5517578,0,1-0.4482422,1-1v-2   c0-0.8115234,0.3164063-1.5664063,0.8925781-2.1269531C27.4335938,14.3164063,28.1884766,14,29,14c0.5517578,0,1-0.4482422,1-1   v-1.9697266c0-0.5273438,0.4101563-0.9638672,0.9365234-0.9980469C31.2773438,10.0107422,31.6279297,10,32,10   c3.0888672,0,5.6044922,0.9023438,7.4404297,1.5615234c0.9111328,0.3271484,1.6982422,0.6103516,2.1826172,0.640625   c0.1455078,0.0087891,0.2041016-0.0087891,0.2128906-0.0117188C41.8310547,12.1865234,41.9941406,11.9667969,42,11.0517578   c-0.1269531-0.2089844-0.7089844-0.5615234-0.9619141-0.7148438c-0.2755737-0.166626-0.53125-0.3226318-0.7272949-0.5129395   l-2.6271973-0.8757324c-0.5234375-0.1738281-0.8066406-0.7402344-0.6318359-1.2646484   c0.1748047-0.5234375,0.7363281-0.8076172,1.2646484-0.6318359l1.2927246,0.4309082C38.5753784,4.2955933,35.5391846,2,32,2   c-3.7055054,0-6.8503418,2.5130005-7.7374878,6H27c0.5527344,0,1,0.4472656,1,1s-0.4472656,1-1,1h-3.9404297   c-0.9150391,0-1.6884766,0.5292969-1.9414063,1.2861328C20.7363281,12.4316406,21.3066406,13.2900391,21.9101563,13.6777344z" transform="matrix(1, 0, 0, 1, 0, 0)" fill="#ef81eb" data-uid="o_en1dn5ej5_36"></path><path d="M19,37c0,0.5517578,0.4482422,1,1,1v-2c-0.2666016,0-0.5136719,0.1025391-0.6933594,0.2871094   C19.1025391,36.4863281,19,36.7333984,19,37z" transform="matrix(1, 0, 0, 1, 0, 0)" fill="#d59d71" data-uid="o_en1dn5ej5_37"></path><path transform="matrix(1, 0, 0, 1, 0, 0)" fill="#d59d71" data-type="polygon" d="M27.5 44.9140625L25.6664429 46.7476196L26.9434204 50.5293579L27.5 51.0859375L30.5859375 48Z" data-uid="o_en1dn5ej5_38"></path><path d="M28.1573486,40.071106c-0.055542,0.0582275-0.1164551,0.1072388-0.1759644,0.1604614   c-0.1201782,0.1074219-0.2454834,0.2052612-0.380249,0.2911987c-0.0716553,0.0457764-0.1433105,0.0881958-0.2186279,0.1275635   c-0.1442871,0.0753784-0.2945557,0.1350098-0.4501953,0.1859131c-0.0720215,0.0235596-0.1405029,0.0521851-0.2145386,0.0702515   c-0.1118774,0.0273438-0.2272949,0.0396729-0.3431396,0.0540771L27.5,42.0859375L29.5859375,40h-1.3505859   C28.2116699,40.0266113,28.1818237,40.0454102,28.1573486,40.071106z" transform="matrix(1, 0, 0, 1, 0, 0)" fill="#d59d71" data-uid="o_en1dn5ej5_39"></path><path d="M44,36v2c0.2666016,0,0.5136719-0.1025391,0.6933594-0.2871094C44.8974609,37.5136719,45,37.2666016,45,37   C45,36.4482422,44.5517578,36,44,36z" transform="matrix(1, 0, 0, 1, 0, 0)" fill="#d59d71" data-uid="o_en1dn5ej5_40"></path><path d="M44,33.7221069c0.147583-0.0861816,0.2887573-0.1846924,0.4130859-0.309021C44.7919922,33.0341797,45,32.5322266,45,32   c0-0.5986328-0.2597656-1.1552734-0.7128906-1.5253906c-0.2910156-0.2382813-0.4238281-0.6181641-0.3447266-0.9853516   C43.9814453,29.3076172,44,29.1523438,44,29c0-0.5466309-0.2214355-1.0609741-0.6234741-1.449585   c-0.2767944-0.2664185-0.6210327-0.4428101-0.9945068-0.5143433C42.2574463,27.012207,42.1296387,27,42,27   c-1.1025391,0-2,0.8974609-2,2c0,0.5527344-0.4472656,1-1,1H28.8908081C28.71698,30.8499146,28.331543,31.647583,27.75,32.3066406   c-0.1982422,0.2246094-0.4736328,0.3388672-0.75,0.3388672c-0.2353516,0-0.4716797-0.0820313-0.6611328-0.25   C25.9238281,32.0302734,25.8847656,31.3984375,26.25,30.984375C26.7333984,30.4355469,27,29.7314453,27,29   c0-1.6542969-1.3457031-3-3-3c-1.2470703,0-2.3730469,0.7822266-2.8017578,1.9453125C21.0654297,28.28125,21,28.6386719,21,29   c0.0800781,0.4863281-0.2109375,0.9765625-0.6796875,1.1298828c-0.2636719,0.0869141-0.5253906,0.2490234-0.734375,0.4580078   C19.2080078,30.9658203,19,31.4677734,19,32s0.2080078,1.0341797,0.5869141,1.4130859S20.4677734,34,21,34   c0.5527344,0,1,0.4472656,1,1v4v4c0,0.2929688,0.1298828,0.5703125,0.3564453,0.7626953   c0.1328125,0.1113281,0.4189453,0.2910156,0.8173828,0.2207031c0.1035156-0.0146484,0.1865234-0.0449219,0.2802734-0.0976563   C23.78125,43.7050781,24,43.3007813,24,42.8798828V40v-2c0-0.5527344,0.4472656-1,1-1s1,0.4472656,1,1v1   c0.3579102,0,0.6815796-0.1881104,0.866272-0.5037231c0.0003662-0.0006714,0.0004883-0.0014648,0.0009155-0.0021362   C26.953125,38.3486328,27,38.1728516,27,38v-3c0-0.5527344,0.4472656-1,1-1h11c0.5527344,0,1,0.4472656,1,1v4   c0,0.2666016,0.1025391,0.5136719,0.2871094,0.6933594c0.2402344,0.2451172,0.5615234,0.3457031,0.8925781,0.2890625   c0.4433594-0.0693359,0.7900391-0.5097656,0.8115234-1.0244141C41.9921875,38.9257813,41.9951172,38.8925781,42,38.8613281   v-0.0009766V35v-2c0-0.5527344,0.4472656-1,1-1s1,0.4472656,1,1V33.7221069z M25.9199219,35.3798828   C25.8701172,35.5,25.7998047,35.609375,25.7099609,35.7099609C25.609375,35.7998047,25.5,35.8701172,25.3798828,35.9199219   S25.1298828,36,25,36s-0.2597656-0.0302734-0.3798828-0.0800781s-0.2304688-0.1201172-0.3300781-0.2099609   C24.2001953,35.609375,24.1298828,35.5,24.0800781,35.3798828C24.0195313,35.2597656,24,35.1298828,24,35   c0-0.2597656,0.109375-0.5205078,0.2900391-0.7099609c0.2294922-0.2304688,0.5800781-0.3398438,0.9101563-0.2705078   c0.0595703,0.0107422,0.1191406,0.0302734,0.1796875,0.0605469c0.0595703,0.0195313,0.1201172,0.0498047,0.1796875,0.0898438   c0.0498047,0.0400391,0.1005859,0.0800781,0.1503906,0.1201172C25.8896484,34.4794922,26,34.7402344,26,35   C26,35.1298828,25.9697266,35.2597656,25.9199219,35.3798828z" transform="matrix(1, 0, 0, 1, 0, 0)" fill="#ef81eb" data-uid="o_en1dn5ej5_41"></path><path transform="matrix(1, 0, 0, 1, 0, 0)" fill="#d59d71" data-type="polygon" d="M33.4140625 48L36.5 51.0859375L37.0570068 50.5289307L38.3336182 46.7476807L36.5 44.9140625Z" data-uid="o_en1dn5ej5_42"></path><path d="M39.7070313,41.7070313L37.9140625,43.5l1.1333618,1.1333618l0.9486694-2.8101196   c-0.0969849-0.0343018-0.184082-0.0903931-0.2769165-0.1344604C39.7139282,41.6942749,39.7124023,41.7016602,39.7070313,41.7070313   z" transform="matrix(1, 0, 0, 1, 0, 0)" fill="#d59d71" data-uid="o_en1dn5ej5_43"></path><path transform="matrix(1, 0, 0, 1, 0, 0)" fill="#d59d71" data-type="polygon" d="M34.5042725 58.09021L35.6156006 54.7984619L33.4140625 57Z" data-uid="o_en1dn5ej5_44"></path><path transform="matrix(1, 0, 0, 1, 0, 0)" fill="#d59d71" data-type="polygon" d="M28.3851929 54.7992554L29.4962158 58.0897217L30.5859375 57Z" data-uid="o_en1dn5ej5_45"></path><path d="M30.210144,60.2039185l0.1863403,0.5519409C30.6152344,61.5068359,31.2685547,62,32,62   s1.3847656-0.4931641,1.5888672-1.1982422l0.2015991-0.597229L32,58.4140625L30.210144,60.2039185z" transform="matrix(1, 0, 0, 1, 0, 0)" fill="#d59d71" data-uid="o_en1dn5ej5_46"></path></g><g transform="matrix(3.411846160888672, 1.8082438707351685, -1.8082438707351685, 3.411846160888672, 204.68472290039062, 30.137897491455078)" fill="#200932" data-uid="o_en1dn5ej5_47"><path d="M45.9200439,34.7142944C46.6116943,33.9717407,47,33.0171509,47,32c0-0.9980469-0.3642578-1.9404297-1.0146484-2.6621094   C45.9951172,29.2236328,46,29.1113281,46,29c0-0.8544312-0.2920532-1.6862183-0.8006592-2.3755493   C45.7208862,25.1429443,46,23.5935059,46,22c0-3.039917-0.9849243-5.9599609-2.7888794-8.3683472   C43.7536621,13.1025391,44,12.2911987,44,11c0-1.2070313-1.1591797-1.9091797-1.9267578-2.3740234   c-0.0654297-0.0400391-0.1279297-0.0761719-0.1845703-0.1113281C41.1699219,3.6357422,36.9804688,0,32,0   c-4.8349609,0-8.9169922,3.4199219-9.8125134,8.0800781c-1.3798695,0.2753906-2.521471,1.2402344-2.965807,2.5732422   c-0.4912109,1.4719849-0.1448364,2.9885254,0.8387451,4.0475464C18.7127686,16.8953247,18,19.3986206,18,22   c0,1.9710083,0.4144897,3.8648071,1.2000732,5.645874c-0.0824585,0.2861328-0.1487427,0.5794067-0.1776123,0.8814697   c-0.3076172,0.1738281-0.5947266,0.3916016-0.8496094,0.6455078C17.4160156,29.9287109,17,30.9335938,17,32   c0,1.0176392,0.3885498,1.9727783,1.0808716,2.7153931c-0.0620728,0.0535889-0.1308594,0.0985718-0.1882935,0.1576538   C17.3164063,35.4335938,17,36.1884766,17,37c0,1.6542969,1.3457031,3,3,3v3c0,0.8818359,0.3886719,1.7167969,1.0654297,2.2890625   c0.5478516,0.4638672,1.2382813,0.7119141,1.9306641,0.7119141c0.1000366,0,0.1993408-0.0146484,0.2988892-0.0251465   l2.5662231,7.5997925c0.0019531,0.005127,0.0030518,0.0101318,0.005127,0.0151978l2.2601318,6.6931152   c0.0057983,0.0158691,0.0092163,0.0314941,0.0158691,0.0470581l0.3469238,1.0274048C28.9404297,62.9140625,30.3837891,64,32,64   s3.0595703-1.0859375,3.4960938-2.5957031l0.3631592-1.0756836c0.0054932-0.0130005,0.0083008-0.026062,0.0132446-0.0392456   l2.2617798-6.699585c0.0016479-0.0039673,0.0025024-0.0079346,0.0040283-0.0119019l3.9858398-11.8060913   C42.8956909,41.4534912,43.4993286,40.8078613,43.7923584,40H44c0.8115234,0,1.5664063-0.3164063,2.1074219-0.8730469   C46.6835938,38.5664063,47,37.8115234,47,37C47,36.0795898,46.574585,35.2650146,45.9200439,34.7142944z M21.1181641,11.2861328   C21.3710938,10.5292969,22.1445313,10,23.0595703,10H27c0.5527344,0,1-0.4472656,1-1s-0.4472656-1-1-1h-2.7374878   C25.1496582,4.5130005,28.2944946,2,32,2c3.5391846,0,6.5753784,2.2955933,7.6091309,5.482666l-1.2927246-0.4309082   c-0.5283203-0.1757813-1.0898438,0.1083984-1.2646484,0.6318359c-0.1748047,0.5244141,0.1083984,1.0908203,0.6318359,1.2646484   l2.6271973,0.8757324c0.1960449,0.1903076,0.4517212,0.3463135,0.7272949,0.5129395   C41.2910156,10.4902344,41.8730469,10.8427734,42,11.0517578c-0.0058594,0.9150391-0.1689453,1.1347656-0.1640625,1.1386719   c-0.0087891,0.0029297-0.0673828,0.0205078-0.2128906,0.0117188c-0.484375-0.0302734-1.2714844-0.3134766-2.1826172-0.640625   C37.6044922,10.9023438,35.0888672,10,32,10c-0.3720703,0-0.7226563,0.0107422-1.0634766,0.0322266   C30.4101563,10.0664063,30,10.5029297,30,11.0302734V13c0,0.5517578-0.4482422,1-1,1   c-0.8115234,0-1.5664063,0.3164063-2.1074219,0.8730469C26.3164063,15.4335938,26,16.1884766,26,17v2c0,0.5517578-0.4482422,1-1,1   c-0.2666016,0-0.5136719-0.1025391-0.7128906-0.3066406C24.1025391,19.5136719,24,19.2666016,24,19v-4c0-0.5527344-0.4472656-1-1-1   c-0.3837891,0-0.7607422-0.1113281-1.0898438-0.3222656C21.3066406,13.2900391,20.7363281,12.4316406,21.1181641,11.2861328z    M21.7304688,15.7929688C21.8193359,15.8222656,21.9091797,15.8496094,22,15.8730469V19   c0,0.8115234,0.3164063,1.5664063,0.8730469,2.1074219C23.4335938,21.6835938,24.1884766,22,25,22c1.6542969,0,3-1.3457031,3-3v-2   c0-0.2666016,0.1025391-0.5136719,0.3066406-0.7128906C28.4863281,16.1025391,28.7333984,16,29,16c1.6542969,0,3-1.3457031,3-3v-1   c2.7402344,0,4.9716797,0.8007813,6.7646484,1.4443359c0.2537231,0.0911255,0.4922485,0.1758423,0.7228394,0.2558594   c0.048645,0.0169067,0.0960083,0.0321045,0.1436768,0.0483398c0.1789551,0.0610352,0.3530273,0.1173096,0.5197144,0.1682739   c0.0646362,0.0197754,0.1292725,0.038208,0.1921997,0.0562134c0.1472168,0.0421143,0.2906494,0.078064,0.4296265,0.1094971   c0.0617065,0.0139771,0.125,0.0289307,0.1852417,0.0405884c0.03479,0.0067139,0.0721436,0.0174561,0.1065063,0.0233765   C42.9599609,16.3271484,44,19.1025391,44,22c0,1.1308594-0.1552734,2.2382813-0.4619141,3.3056641   c-0.0066528-0.0027466-0.0140381-0.00354-0.0206909-0.0062866c-0.1686401-0.0690918-0.3458252-0.1140137-0.5230103-0.1593628   c-0.072876-0.0186768-0.1417236-0.0487671-0.2158203-0.0633545C42.5245972,25.0267944,42.2643433,25,42,25   c-1.8603516,0-3.4287109,1.2763672-3.8730469,3h-9.2275391C28.4345703,25.7207031,26.4150391,24,24,24   c-0.3040161,0-0.6013184,0.0357666-0.8937988,0.0894775c-0.0882568,0.0162354-0.1728516,0.0404053-0.2597046,0.0612793   c-0.2080688,0.0498657-0.4108887,0.111084-0.6091919,0.1864014c-0.0862427,0.0328369-0.1712036,0.0654297-0.255249,0.1028442   c-0.2174683,0.0964966-0.4257202,0.208374-0.6265869,0.3339844c-0.0465088,0.0291748-0.0958862,0.0525513-0.1414185,0.0831909   c-0.2478638,0.1665039-0.4797363,0.3543091-0.6941528,0.5620728c-0.0073242,0.0071411-0.0164795,0.012085-0.0238037,0.0192261   C20.1660156,24.3320313,20,23.1816406,20,22C20,19.7890625,20.5957031,17.6601563,21.7304688,15.7929688z M19,37   c0-0.2666016,0.1025391-0.5136719,0.3066406-0.7128906C19.4863281,36.1025391,19.7333984,36,20,36v2   C19.4482422,38,19,37.5517578,19,37z M22.3564453,43.7626953C22.1298828,43.5703125,22,43.2929688,22,43v-4v-4   c0-0.5527344-0.4472656-1-1-1c-0.5322266,0-1.0341797-0.2080078-1.4130859-0.5869141S19,32.5322266,19,32   s0.2080078-1.0341797,0.5859375-1.4121094c0.2089844-0.2089844,0.4707031-0.3710938,0.734375-0.4580078   C20.7890625,29.9765625,21.0800781,29.4863281,21,29c0-0.3613281,0.0654297-0.71875,0.1982422-1.0546875   C21.6269531,26.7822266,22.7529297,26,24,26c1.6542969,0,3,1.3457031,3,3c0,0.7314453-0.2666016,1.4355469-0.75,1.984375   c-0.3652344,0.4140625-0.3261719,1.0458984,0.0888672,1.4111328c0.1894531,0.1679688,0.4257813,0.25,0.6611328,0.25   c0.2763672,0,0.5517578-0.1142578,0.75-0.3388672C28.331543,31.647583,28.71698,30.8499146,28.8908081,30H39   c0.5527344,0,1-0.4472656,1-1c0-1.1025391,0.8974609-2,2-2c0.1296387,0,0.2574463,0.012207,0.382019,0.0360718   c0.3734741,0.0715332,0.7177124,0.2479248,0.9945068,0.5143433C43.7785645,27.9390259,44,28.4533691,44,29   c0,0.1523438-0.0185547,0.3076172-0.0576172,0.4892578c-0.0791016,0.3671875,0.0537109,0.7470703,0.3447266,0.9853516   C44.7402344,30.8447266,45,31.4013672,45,32c0,0.5322266-0.2080078,1.0341797-0.5869141,1.4130859   C44.2887573,33.5374146,44.147583,33.6359253,44,33.7221069V33c0-0.5527344-0.4472656-1-1-1s-1,0.4472656-1,1v2v3.8603516   v0.0009766c-0.0048828,0.03125-0.0078125,0.0644531-0.0087891,0.0966797   c-0.0214844,0.5146484-0.3681641,0.9550781-0.8115234,1.0244141c-0.3310547,0.0566406-0.6523438-0.0439453-0.8925781-0.2890625   C40.1025391,39.5136719,40,39.2666016,40,39v-4c0-0.5527344-0.4472656-1-1-1H28c-0.5527344,0-1,0.4472656-1,1v3   c0,0.1728516-0.046875,0.3486328-0.1328125,0.4941406c-0.0004272,0.0006714-0.0005493,0.0014648-0.0009155,0.0021362   C26.6815796,38.8118896,26.3579102,39,26,39v-1c0-0.5527344-0.4472656-1-1-1s-1,0.4472656-1,1v2v2.8798828   c0,0.4208984-0.21875,0.8251953-0.5458984,1.0058594c-0.09375,0.0527344-0.1767578,0.0830078-0.2802734,0.0976563   C22.7753906,44.0537109,22.4892578,43.8740234,22.3564453,43.7626953z M34.5042725,58.09021L33.4140625,57l2.2015381-2.2015381   L34.5042725,58.09021z M26.9434204,50.5293579l-1.2769775-3.7817383L27.5,44.9140625L30.5859375,48L27.5,51.0859375   L26.9434204,50.5293579z M25.9459229,43.4325562c0.00354-0.0202637,0.0089722-0.0400391,0.012146-0.0604248L26.0859375,43.5   l-0.1921997,0.1921997c0.0101929-0.0391846,0.0151978-0.0797729,0.0239868-0.1194458   C25.9280396,43.526062,25.9376221,43.4798584,25.9459229,43.4325562z M28.9140625,43.5L32,40.4140625L35.0859375,43.5   L32,46.5859375L28.9140625,43.5z M34.4140625,40h3.7548828c0.0081787,0.0232544,0.0231934,0.0429688,0.0319214,0.065918   c0.0289917,0.0764771,0.0637207,0.1490479,0.098877,0.2225342c-0.0020142,0.0019531-0.0047607,0.0025024-0.0067749,0.0045166   L36.5,42.0859375L34.4140625,40z M38,38h-9v-2h9V38z M26.932312,40.8362427   c0.1556396-0.0509033,0.3059082-0.1105347,0.4501953-0.1859131c0.0753174-0.0393677,0.1469727-0.0817871,0.2186279-0.1275635   c0.1347656-0.0859375,0.2600708-0.1837769,0.380249-0.2911987c0.0595093-0.0532227,0.1204224-0.1022339,0.1759644-0.1604614   C28.1818237,40.0454102,28.2116699,40.0266113,28.2353516,40h1.3505859L27.5,42.0859375l-1.1253662-1.1253662   c0.1158447-0.0144043,0.2312622-0.0267334,0.3431396-0.0540771C26.7918091,40.8884277,26.8602905,40.8598022,26.932312,40.8362427z    M28.3851929,54.7992554L30.5859375,57l-1.0897217,1.0897217L28.3851929,54.7992554z M28.9140625,52.5L32,49.4140625   L35.0859375,52.5L32,55.5859375L28.9140625,52.5z M37.0570068,50.5289307L36.5,51.0859375L33.4140625,48L36.5,44.9140625   l1.8336182,1.8336182L37.0570068,50.5289307z M37.9140625,43.5l1.7929688-1.7929688   c0.0053711-0.0053711,0.006897-0.0127563,0.012146-0.0182495c0.0928345,0.0440674,0.1799316,0.1001587,0.2769165,0.1344604   l-0.9486694,2.8101196L37.9140625,43.5z M32,62c-0.7314453,0-1.3847656-0.4931641-1.6035156-1.2441406l-0.1863403-0.5519409   L32,58.4140625l1.7904663,1.7904663l-0.2015991,0.597229C33.3847656,61.5068359,32.7314453,62,32,62z M44.6933594,37.7128906   C44.5136719,37.8974609,44.2666016,38,44,38v-2c0.5517578,0,1,0.4482422,1,1   C45,37.2666016,44.8974609,37.5136719,44.6933594,37.7128906z" transform="matrix(1, 0, 0, 1, 0, 0)" fill="#2e2a64" data-uid="o_en1dn5ej5_48"></path><path d="M24.2900391,35.7099609c0.0996094,0.0898438,0.2099609,0.1601563,0.3300781,0.2099609S24.8701172,36,25,36   s0.2597656-0.0302734,0.3798828-0.0800781s0.2294922-0.1201172,0.3300781-0.2099609   C25.7998047,35.609375,25.8701172,35.5,25.9199219,35.3798828S26,35.1298828,26,35   c0-0.2597656-0.1103516-0.5205078-0.2900391-0.7099609C25.6601563,34.25,25.609375,34.2099609,25.5595703,34.1699219   C25.5,34.1298828,25.4394531,34.0996094,25.3798828,34.0800781c-0.0605469-0.0302734-0.1201172-0.0498047-0.1796875-0.0605469   c-0.3300781-0.0693359-0.6806641,0.0400391-0.9101563,0.2705078C24.109375,34.4794922,24,34.7402344,24,35   c0,0.1298828,0.0195313,0.2597656,0.0800781,0.3798828C24.1298828,35.5,24.2001953,35.609375,24.2900391,35.7099609z" transform="matrix(1, 0, 0, 1, 0, 0)" fill="#2e2a64" data-uid="o_en1dn5ej5_49"></path></g></g><path text="piiiiink!" fill="#cc74bc" space="preserve" text-anchor="middle" offset="0.5" font-scale="contain" font-size="48" font-family="Fugaz One" transform="matrix(2.5078134536743164, 0, 0, 2.5078134536743164, 256.5756530761719, 460.6278991699219)" data-fl-textpath="" font-weight="400" font-style="normal" stroke="none" stroke-width="0" data-uid="o_en1dn5ej5_50" d="M-69.53-23.71L-69.53-23.71Q-64.63-23.71 -62.75999999999999-21.12L-62.75999999999999-21.12Q-61.419999999999995-19.34 -61.419999999999995-16.61L-61.419999999999995-16.61Q-61.419999999999995-15.5 -61.66-14.26L-61.66-14.26L-62.61999999999999-8.64Q-63.42999999999999-4.08 -66.11999999999999-1.7Q-68.81 0.67 -72.83999999999999 0.67Q-76.86999999999999 0.67 -78.46-1.49L-78.46-1.49L-81.05 13.34L-89.21 13.34L-82.78-23.09L-75.38-23.09L-75.61999999999999-21.79Q-73.36999999999999-23.71 -69.53-23.71ZM-74.52-6.24L-74.52-6.24Q-73.17999999999999-6.24 -72.02-7.1Q-70.86999999999999-7.97 -70.58-9.7L-70.58-9.7L-69.96-13.3Q-69.86-13.78 -69.86-14.5Q-69.86-15.22 -70.49-16.03Q-71.11-16.85 -72.64999999999999-16.85L-72.64999999999999-16.85Q-75.14-16.85 -75.91-15.65L-75.91-15.65L-77.35-7.58Q-76.67999999999999-6.24 -74.52-6.24ZM-48.412-6.14L-48.412-6.14Q-47.302-6.14 -46.442-6.62L-46.442-6.62L-46.682-1.2Q-48.932 0.67 -51.812 0.67L-51.812 0.67Q-56.182 0.67 -57.482-1.34L-57.482-1.34Q-58.342-2.69 -58.342-4.2Q-58.342-5.71 -58.152-6.86L-58.152-6.86L-55.272-23.09L-47.111999999999995-23.09L-49.802-7.97Q-49.852-7.68 -49.852-7.44L-49.852-7.44Q-49.852-6.14 -48.412-6.14ZM-54.312-30.91L-54.312-30.91Q-54.312-33.98 -52.942-35.4Q-51.572-36.82 -48.692-36.82L-48.692-36.82Q-44.662-36.82 -44.662-33.26L-44.662-33.26Q-44.662-30.24 -46.032-28.85Q-47.402-27.46 -50.332-27.46L-50.332-27.46Q-54.312-27.46 -54.312-30.91ZM-33.388-6.14L-33.388-6.14Q-32.278-6.14 -31.418-6.62L-31.418-6.62L-31.657999999999998-1.2Q-33.908 0.67 -36.788 0.67L-36.788 0.67Q-41.158 0.67 -42.458-1.34L-42.458-1.34Q-43.318-2.69 -43.318-4.2Q-43.318-5.71 -43.128-6.86L-43.128-6.86L-40.248-23.09L-32.087999999999994-23.09L-34.778-7.97Q-34.827999999999996-7.68 -34.827999999999996-7.44L-34.827999999999996-7.44Q-34.827999999999996-6.14 -33.388-6.14ZM-39.288-30.91L-39.288-30.91Q-39.288-33.98 -37.918-35.4Q-36.548-36.82 -33.668-36.82L-33.668-36.82Q-29.637999999999998-36.82 -29.637999999999998-33.26L-29.637999999999998-33.26Q-29.637999999999998-30.24 -31.007999999999996-28.85Q-32.378-27.46 -35.308-27.46L-35.308-27.46Q-39.288-27.46 -39.288-30.91ZM-18.363999999999997-6.14L-18.363999999999997-6.14Q-17.253999999999998-6.14 -16.394-6.62L-16.394-6.62L-16.633999999999997-1.2Q-18.883999999999997 0.67 -21.763999999999996 0.67L-21.763999999999996 0.67Q-26.133999999999997 0.67 -27.433999999999997-1.34L-27.433999999999997-1.34Q-28.293999999999997-2.69 -28.293999999999997-4.2Q-28.293999999999997-5.71 -28.103999999999996-6.86L-28.103999999999996-6.86L-25.223999999999997-23.09L-17.063999999999997-23.09L-19.753999999999998-7.97Q-19.803999999999995-7.68 -19.803999999999995-7.44L-19.803999999999995-7.44Q-19.803999999999995-6.14 -18.363999999999997-6.14ZM-24.263999999999996-30.91L-24.263999999999996-30.91Q-24.263999999999996-33.98 -22.894-35.4Q-21.523999999999997-36.82 -18.644-36.82L-18.644-36.82Q-14.613999999999997-36.82 -14.613999999999997-33.26L-14.613999999999997-33.26Q-14.613999999999997-30.24 -15.983999999999996-28.85Q-17.354-27.46 -20.284-27.46L-20.284-27.46Q-24.263999999999996-27.46 -24.263999999999996-30.91ZM-3.3399999999999963-6.14L-3.3399999999999963-6.14Q-2.229999999999997-6.14 -1.3699999999999957-6.62L-1.3699999999999957-6.62L-1.6099999999999959-1.2Q-3.859999999999996 0.67 -6.739999999999996 0.67L-6.739999999999996 0.67Q-11.109999999999996 0.67 -12.409999999999997-1.34L-12.409999999999997-1.34Q-13.269999999999996-2.69 -13.269999999999996-4.2Q-13.269999999999996-5.71 -13.079999999999997-6.86L-13.079999999999997-6.86L-10.199999999999996-23.09L-2.0399999999999956-23.09L-4.729999999999997-7.97Q-4.779999999999996-7.68 -4.779999999999996-7.44L-4.779999999999996-7.44Q-4.779999999999996-6.14 -3.3399999999999963-6.14ZM-9.239999999999995-30.91L-9.239999999999995-30.91Q-9.239999999999995-33.98 -7.869999999999996-35.4Q-6.4999999999999964-36.82 -3.6199999999999957-36.82L-3.6199999999999957-36.82Q 0.4100000000000037-36.82  0.4100000000000037-33.26L 0.4100000000000037-33.26Q 0.4100000000000037-30.24 -0.9599999999999955-28.85Q-2.3299999999999965-27.46 -5.259999999999996-27.46L-5.259999999999996-27.46Q-9.239999999999995-27.46 -9.239999999999995-30.91ZM 11.684000000000005-6.14L 11.684000000000005-6.14Q 12.794000000000004-6.14  13.654000000000005-6.62L 13.654000000000005-6.62L 13.414000000000005-1.2Q 11.164000000000005 0.67  8.284000000000006 0.67L 8.284000000000006 0.67Q 3.914000000000005 0.67  2.6140000000000048-1.34L 2.6140000000000048-1.34Q 1.7540000000000049-2.69  1.7540000000000049-4.2Q 1.7540000000000049-5.71  1.9440000000000048-6.86L 1.9440000000000048-6.86L 4.824000000000005-23.09L 12.984000000000005-23.09L 10.294000000000004-7.97Q 10.244000000000005-7.68  10.244000000000005-7.44L 10.244000000000005-7.44Q 10.244000000000005-6.14  11.684000000000005-6.14ZM 5.784000000000005-30.91L 5.784000000000005-30.91Q 5.784000000000005-33.98  7.154000000000005-35.4Q 8.524000000000004-36.82  11.404000000000005-36.82L 11.404000000000005-36.82Q 15.434000000000005-36.82  15.434000000000005-33.26L 15.434000000000005-33.26Q 15.434000000000005-30.24  14.064000000000005-28.85Q 12.694000000000004-27.46  9.764000000000005-27.46L 9.764000000000005-27.46Q 5.784000000000005-27.46  5.784000000000005-30.91ZM 32.03800000000001-14.74L 32.03800000000001-14.74Q 32.03800000000001-16.8  30.048000000000005-16.8Q 28.058000000000007-16.8  26.758000000000006-15.31L 26.758000000000006-15.31L 24.068000000000005 0L 15.908000000000007 0L 19.988000000000007-23.09L 27.578000000000007-23.09L 27.048000000000005-20.26Q 29.878000000000007-23.76  34.19800000000001-23.76Q 38.518-23.76  39.818000000000005-21.65L 39.818000000000005-21.65Q 40.62800000000001-20.3  40.62800000000001-18.58Q 40.62800000000001-16.85  40.388000000000005-15.36L 40.388000000000005-15.36L 39.098000000000006-7.97Q 39.048-7.68  39.048-7.44L 39.048-7.44Q 39.048-6.14  40.48800000000001-6.14L 40.48800000000001-6.14Q 41.58800000000001-6.14  42.458000000000006-6.62L 42.458000000000006-6.62L 42.218-1.2Q 39.958000000000006 0.67  37.078 0.67L 37.078 0.67Q 30.548000000000005 0.67  30.548000000000005-4.8L 30.548000000000005-4.8Q 30.548000000000005-5.76  30.748000000000005-6.86L 30.748000000000005-6.86L 31.898000000000007-13.25Q 32.03800000000001-14.11  32.03800000000001-14.74ZM 68.28200000000001-6.14L 68.28200000000001-6.14Q 69.382-6.14  70.25200000000001-6.62L 70.25200000000001-6.62L 70.012-1.2Q 67.75200000000001 0.67  64.492 0.67Q 61.22200000000001 0.67  59.662000000000006-1.06Q 58.102000000000004-2.78  57.242000000000004-6.86L 57.242000000000004-6.86L 57.092000000000006-7.54Q 56.092000000000006-7.39  54.072-7.3L 54.072-7.3L 52.772000000000006 0L 44.61200000000001 0L 51.05200000000001-36.43L 59.212-36.43L 56.422000000000004-20.64Q 59.25200000000001-23.76  64.102-23.76L 64.102-23.76Q 67.37200000000001-23.76  68.932-22.15Q 70.492-20.54  70.492-17.86L 70.492-17.86Q 70.492-12.67  65.06200000000001-9.74L 65.06200000000001-9.74L 65.59200000000001-7.97Q 66.12200000000001-6.14  68.28200000000001-6.14ZM 59.97200000000001-17.23L 59.97200000000001-17.23Q 57.382000000000005-17.23  55.37200000000001-14.78L 55.37200000000001-14.78L 54.842000000000006-11.62Q 61.94200000000001-11.9  61.94200000000001-15.41L 61.94200000000001-15.41Q 61.94200000000001-16.22  61.44200000000001-16.73Q 60.932-17.23  59.97200000000001-17.23ZM 88.19800000000001-37.97L 82.96800000000002-12.58L 76.58800000000001-12.58L 80.03800000000001-37.97L 88.19800000000001-37.97ZM 73.65800000000002-2.78L 73.65800000000002-2.78Q 73.65800000000002-5.86  74.99800000000002-7.27Q 76.34800000000001-8.69  79.26800000000001-8.69L 79.26800000000001-8.69Q 83.30800000000002-8.69  83.30800000000002-5.14L 83.30800000000002-5.14Q 83.30800000000002-2.11  81.93800000000002-0.72Q 80.56800000000001 0.67  77.63800000000002 0.67L 77.63800000000002 0.67Q 73.65800000000002 0.67  73.65800000000002-2.78Z"></path></svg>